<?xml version="1.0" encoding="utf-8"?>
<!-- Generator: Adobe Illustrator 25.2.0, SVG Export Plug-In . SVG Version: 6.00 Build 0)  -->
<svg version="1.1" id="Layer_1" xmlns="http://www.w3.org/2000/svg" xmlns:xlink="http://www.w3.org/1999/xlink" x="0px" y="0px"
	 viewBox="0 0 1162.2 311.81" style="enable-background:new 0 0 1162.2 311.81;" xml:space="preserve">
<style type="text/css">
	.st0{fill:#73BFEB;}
</style>
<g>
	<g>
		<path d="M300.17,178.18c0.61,0,1.21,0.1,1.82,0.3c0.61,0.2,1.19,0.54,1.75,1.03l10.17,9.41c-4.45,5.12-10.03,8.97-16.74,11.58
			c-6.71,2.6-14.64,3.9-23.8,3.9c-8.4,0-15.93-1.26-22.58-3.77c-6.66-2.51-12.3-5.98-16.93-10.41c-4.63-4.42-8.19-9.67-10.67-15.75
			c-2.48-6.07-3.72-12.66-3.72-19.78c0-7.25,1.34-13.91,4.02-19.98c2.68-6.07,6.45-11.31,11.31-15.71
			c4.86-4.4,10.68-7.83,17.46-10.27c6.78-2.45,14.25-3.67,22.39-3.67c4.15,0,8.06,0.32,11.73,0.97c3.67,0.64,7.1,1.53,10.29,2.67
			c3.19,1.13,6.12,2.5,8.81,4.1c2.68,1.6,5.06,3.34,7.14,5.2l-8.65,10.21c-0.56,0.62-1.21,1.19-1.97,1.7
			c-0.76,0.51-1.82,0.77-3.19,0.77c-0.91,0-1.77-0.18-2.58-0.53c-0.81-0.36-1.67-0.79-2.58-1.3c-0.91-0.51-1.91-1.07-3-1.67
			c-1.09-0.6-2.38-1.16-3.87-1.67c-1.49-0.51-3.24-0.94-5.24-1.3c-2-0.36-4.34-0.53-7.02-0.53c-4.25,0-8.14,0.69-11.65,2.07
			c-3.52,1.38-6.55,3.39-9.11,6.04c-2.56,2.65-4.53,5.89-5.92,9.74c-1.39,3.85-2.09,8.24-2.09,13.17c0,4.98,0.77,9.41,2.32,13.28
			c1.54,3.87,3.64,7.13,6.3,9.77c2.66,2.65,5.76,4.66,9.3,6.04c3.54,1.38,7.34,2.07,11.39,2.07c2.33,0,4.45-0.1,6.38-0.3
			c1.92-0.2,3.72-0.53,5.39-1c1.67-0.47,3.24-1.09,4.71-1.87c1.47-0.78,2.96-1.77,4.48-2.97c0.61-0.44,1.26-0.81,1.97-1.1
			C298.67,178.33,299.41,178.18,300.17,178.18z"/>
		<path d="M368.41,133.09c5.97,0,11.41,0.82,16.32,2.47c4.91,1.65,9.12,4,12.64,7.07c3.52,3.07,6.25,6.79,8.2,11.17
			c1.95,4.38,2.92,9.31,2.92,14.78c0,5.51-0.97,10.48-2.92,14.91c-1.95,4.43-4.68,8.18-8.2,11.28c-3.52,3.09-7.73,5.47-12.64,7.14
			c-4.91,1.67-10.35,2.5-16.32,2.5c-6.02,0-11.5-0.83-16.44-2.5c-4.93-1.67-9.19-4.05-12.75-7.14c-3.57-3.09-6.33-6.85-8.27-11.28
			c-1.95-4.42-2.92-9.39-2.92-14.91c0-5.47,0.97-10.4,2.92-14.78c1.95-4.38,4.71-8.1,8.27-11.17s7.82-5.43,12.75-7.07
			C356.91,133.91,362.39,133.09,368.41,133.09z M368.41,189.06c5.41,0,9.4-1.68,11.96-5.04c2.56-3.36,3.83-8.46,3.83-15.31
			c0-6.85-1.28-11.94-3.83-15.28c-2.56-3.34-6.54-5-11.96-5c-5.57,0-9.64,1.67-12.22,5c-2.58,3.34-3.87,8.43-3.87,15.28
			c0,6.85,1.29,11.95,3.87,15.31C358.77,187.38,362.84,189.06,368.41,189.06z"/>
		<path d="M503.01,103.46v99.87h-14.58c-2.94,0-4.86-1.16-5.77-3.47l-1.82-5.27c-1.57,1.47-3.21,2.8-4.93,4
			c-1.72,1.2-3.58,2.23-5.58,3.1c-2,0.87-4.15,1.53-6.45,2c-2.3,0.47-4.8,0.7-7.48,0.7c-4.1,0-7.89-0.8-11.39-2.4
			c-3.49-1.6-6.5-3.91-9.03-6.94c-2.53-3.02-4.52-6.73-5.96-11.11c-1.44-4.38-2.16-9.37-2.16-14.98c0-5.16,0.81-9.95,2.43-14.38
			c1.62-4.42,3.91-8.25,6.87-11.47c2.96-3.22,6.52-5.75,10.67-7.57c4.15-1.82,8.73-2.73,13.74-2.73c4.1,0,7.54,0.51,10.32,1.53
			c2.78,1.02,5.31,2.4,7.59,4.14v-35.02H503.01z M479.47,152.7c-1.77-1.73-3.69-2.95-5.77-3.64c-2.08-0.69-4.25-1.03-6.53-1.03
			c-2.18,0-4.18,0.38-6,1.13c-1.82,0.76-3.4,1.97-4.74,3.64c-1.34,1.67-2.39,3.84-3.15,6.5c-0.76,2.67-1.14,5.89-1.14,9.67
			c0,3.65,0.3,6.72,0.91,9.21c0.61,2.49,1.45,4.5,2.54,6.04c1.09,1.53,2.39,2.63,3.91,3.3c1.52,0.67,3.21,1,5.09,1
			c1.72,0,3.28-0.14,4.67-0.43c1.39-0.29,2.67-0.7,3.83-1.23c1.16-0.53,2.26-1.21,3.3-2.03c1.04-0.82,2.06-1.77,3.07-2.83V152.7z"/>
		<path d="M549.69,172.45c0.76,5.78,2.76,9.97,6,12.58c3.24,2.6,7.41,3.9,12.53,3.9c2.73,0,5.09-0.29,7.06-0.87
			c1.97-0.58,3.73-1.22,5.28-1.93c1.54-0.71,2.96-1.36,4.25-1.93c1.29-0.58,2.64-0.87,4.06-0.87c1.87,0,3.29,0.6,4.25,1.8l6.83,7.41
			c-2.43,2.45-5.05,4.44-7.86,5.97c-2.81,1.53-5.69,2.73-8.65,3.6s-5.92,1.47-8.88,1.8c-2.96,0.33-5.78,0.5-8.46,0.5
			c-5.52,0-10.69-0.79-15.52-2.37c-4.83-1.58-9.06-3.92-12.68-7.04c-3.62-3.11-6.48-6.98-8.58-11.61
			c-2.1-4.62-3.15-10.01-3.15-16.14c0-4.62,0.9-9.01,2.7-13.14c1.8-4.14,4.38-7.76,7.74-10.87c3.37-3.11,7.44-5.58,12.22-7.4
			c4.78-1.82,10.18-2.73,16.21-2.73c5.21,0,9.98,0.71,14.31,2.13c4.33,1.42,8.05,3.49,11.16,6.2c3.11,2.71,5.54,6.04,7.29,9.97
			c1.75,3.94,2.62,8.4,2.62,13.38c0,1.56-0.08,2.83-0.23,3.8c-0.15,0.98-0.43,1.76-0.83,2.33c-0.41,0.58-0.95,0.98-1.63,1.2
			c-0.68,0.22-1.56,0.33-2.62,0.33H549.69z M579.3,160.44c0-1.65-0.24-3.25-0.72-4.8c-0.48-1.56-1.27-2.95-2.35-4.17
			c-1.09-1.22-2.52-2.21-4.29-2.97c-1.77-0.76-3.92-1.13-6.45-1.13c-4.45,0-7.95,1.12-10.48,3.37c-2.53,2.25-4.2,5.48-5.01,9.71
			H579.3z"/>
		<path class="st0" d="M650.43,123.48v24.62h37.81v17.41h-37.81v37.83h-25.81v-97.2h71.21v17.34H650.43z"/>
		<path class="st0" d="M748.59,133.09c5.97,0,11.41,0.82,16.32,2.47c4.91,1.65,9.12,4,12.64,7.07s6.25,6.79,8.2,11.17
			c1.95,4.38,2.92,9.31,2.92,14.78c0,5.51-0.98,10.48-2.92,14.91c-1.95,4.43-4.68,8.18-8.2,11.28c-3.52,3.09-7.73,5.47-12.64,7.14
			s-10.35,2.5-16.32,2.5c-6.02,0-11.5-0.83-16.44-2.5c-4.93-1.67-9.19-4.05-12.75-7.14c-3.57-3.09-6.33-6.85-8.27-11.28
			c-1.95-4.42-2.92-9.39-2.92-14.91c0-5.47,0.98-10.4,2.92-14.78c1.95-4.38,4.71-8.1,8.27-11.17c3.57-3.07,7.82-5.43,12.75-7.07
			C737.09,133.91,742.57,133.09,748.59,133.09z M748.59,189.06c5.42,0,9.4-1.68,11.96-5.04c2.56-3.36,3.83-8.46,3.83-15.31
			c0-6.85-1.28-11.94-3.83-15.28c-2.55-3.34-6.54-5-11.96-5c-5.57,0-9.64,1.67-12.22,5c-2.58,3.34-3.87,8.43-3.87,15.28
			c0,6.85,1.29,11.95,3.87,15.31C738.95,187.38,743.02,189.06,748.59,189.06z"/>
		<path class="st0" d="M876.12,124.01H845v79.32h-25.66v-79.32h-31.12v-17.88h87.91V124.01z"/>
		<path class="st0" d="M899.12,172.45c0.76,5.78,2.76,9.97,6,12.58c3.24,2.6,7.41,3.9,12.53,3.9c2.73,0,5.09-0.29,7.06-0.87
			c1.97-0.58,3.73-1.22,5.27-1.93c1.54-0.71,2.96-1.36,4.25-1.93c1.29-0.58,2.64-0.87,4.06-0.87c1.87,0,3.29,0.6,4.25,1.8l6.83,7.41
			c-2.43,2.45-5.05,4.44-7.86,5.97c-2.81,1.53-5.69,2.73-8.66,3.6c-2.96,0.87-5.92,1.47-8.88,1.8c-2.96,0.33-5.78,0.5-8.46,0.5
			c-5.52,0-10.69-0.79-15.52-2.37c-4.83-1.58-9.06-3.92-12.68-7.04c-3.62-3.11-6.48-6.98-8.58-11.61
			c-2.1-4.62-3.15-10.01-3.15-16.14c0-4.62,0.9-9.01,2.7-13.14c1.8-4.14,4.38-7.76,7.74-10.87c3.37-3.11,7.44-5.58,12.22-7.4
			c4.78-1.82,10.18-2.73,16.21-2.73c5.21,0,9.98,0.71,14.31,2.13c4.33,1.42,8.05,3.49,11.16,6.2c3.11,2.71,5.54,6.04,7.29,9.97
			c1.74,3.94,2.62,8.4,2.62,13.38c0,1.56-0.07,2.83-0.23,3.8c-0.15,0.98-0.43,1.76-0.83,2.33c-0.41,0.58-0.95,0.98-1.63,1.2
			c-0.68,0.22-1.56,0.33-2.62,0.33H899.12z M928.73,160.44c0-1.65-0.24-3.25-0.72-4.8c-0.48-1.56-1.27-2.95-2.35-4.17
			c-1.09-1.22-2.52-2.21-4.29-2.97c-1.77-0.76-3.92-1.13-6.45-1.13c-4.45,0-7.95,1.12-10.48,3.37c-2.53,2.25-4.2,5.48-5.01,9.71
			H928.73z"/>
		<path class="st0" d="M1030.83,150.56c-0.71,0.76-1.39,1.36-2.05,1.8c-0.66,0.45-1.59,0.67-2.81,0.67c-1.16,0-2.21-0.24-3.15-0.73
			c-0.94-0.49-1.99-1.03-3.15-1.63c-1.16-0.6-2.53-1.15-4.1-1.63c-1.57-0.49-3.52-0.73-5.85-0.73c-2.88,0-5.38,0.47-7.48,1.4
			c-2.1,0.93-3.83,2.27-5.2,4c-1.37,1.73-2.38,3.86-3.04,6.37c-0.66,2.51-0.99,5.35-0.99,8.51c0,6.63,1.45,11.72,4.36,15.28
			c2.91,3.56,6.92,5.34,12.03,5.34c2.73,0,4.9-0.3,6.49-0.9c1.6-0.6,2.95-1.27,4.06-2c1.11-0.73,2.14-1.41,3.07-2.03
			c0.94-0.62,2.11-0.93,3.53-0.93c1.87,0,3.29,0.6,4.25,1.8l6.83,7.41c-2.43,2.45-4.98,4.44-7.67,5.97
			c-2.68,1.53-5.43,2.73-8.24,3.6c-2.81,0.87-5.63,1.47-8.46,1.8c-2.84,0.33-5.59,0.5-8.27,0.5c-4.81,0-9.4-0.8-13.78-2.4
			c-4.38-1.6-8.23-3.92-11.54-6.97c-3.32-3.05-5.95-6.79-7.89-11.24c-1.95-4.45-2.92-9.52-2.92-15.21c0-4.98,0.85-9.64,2.54-13.98
			c1.7-4.34,4.2-8.09,7.52-11.27c3.31-3.18,7.41-5.68,12.3-7.5c4.88-1.82,10.54-2.73,16.97-2.73c6.17,0,11.59,0.87,16.25,2.6
			c4.65,1.73,8.86,4.27,12.6,7.61L1030.83,150.56z"/>
		<path class="st0" d="M1081.77,140.22c2.83-2.13,5.91-3.86,9.22-5.17c3.31-1.31,7.27-1.97,11.88-1.97c4.3,0,8.11,0.66,11.42,1.97
			s6.11,3.14,8.39,5.47c2.28,2.33,4,5.12,5.16,8.34c1.16,3.23,1.75,6.73,1.75,10.51v43.96h-23.53v-43.96c0-3.38-0.89-6.01-2.66-7.91
			c-1.77-1.89-4.38-2.83-7.82-2.83c-2.58,0-5,0.48-7.25,1.43c-2.25,0.96-4.44,2.26-6.57,3.9v49.37h-23.53v-99.87h23.53V140.22z"/>
	</g>
	<g>
		<path d="M67.62,154.21c-2.5,1.72-5.34,3.1-8.53,4.13c3.19,1.03,6.03,2.41,8.53,4.13l20.89,15.91c1.32,0.89,2.27,2.01,2.83,3.36
			c0.56,1.34,0.85,2.81,0.85,4.39v22.21l-59.57-43.7v-12.5l59.57-43.8v22.21c0,1.59-0.28,3.05-0.85,4.39
			c-0.56,1.34-1.51,2.5-2.83,3.46L67.62,154.21z"/>
		<path class="st0" d="M182.94,152.15v12.5l-59.57,43.7v-22.21c0-1.58,0.28-3.05,0.85-4.39c0.56-1.34,1.51-2.46,2.83-3.36
			l20.89-15.91c2.5-1.72,5.34-3.1,8.53-4.13c-3.19-1.03-6.03-2.41-8.53-4.13l-20.89-15.81c-1.32-0.96-2.27-2.12-2.83-3.46
			c-0.56-1.34-0.85-2.81-0.85-4.39v-22.21L182.94,152.15z"/>
	</g>
</g>
</svg>
